<svg width="96" height="96" viewBox="0 0 513 503" fill="none" xmlns="http://www.w3.org/2000/svg">
<rect width="513" height="503" fill="#1E1E1E"/>
<path d="M237.2 84.7V135.8H241.75L259.25 156.8V182.35C249.917 182.35 243.967 184.217 241.4 187.95C238.833 191.683 237.55 198.1 237.55 207.2C237.55 246.4 206.05 266 143.05 266C126.017 266 113.533 264.95 105.6 262.85C97.6667 260.75 90.3167 257.25 83.55 252.35C74.9167 261.45 65.35 266 54.85 266C41.0833 266 28.95 260.167 18.45 248.5C8.18333 236.833 2.11667 224.583 0.25 211.75L9.7 205.45C11.1 207.317 13.6667 208.25 17.4 208.25C21.1333 208.25 24.1667 206.85 26.5 204.05C28.8333 201.017 30.2333 197.983 30.7 194.95C31.1667 191.683 31.4 187.483 31.4 182.35H27.2L9.7 161.35V135.8C19.9667 135.8 27.2 136.15 31.4 136.85V70.35H28.6L11.1 49.35V-1.52588e-05H131.5C159.5 -1.52588e-05 183.65 6.29999 203.95 18.9C214.217 25.4333 222.267 34.4167 228.1 45.85C234.167 57.05 237.2 70 237.2 84.7ZM176.3 147.35C178.633 145.483 181.317 142.683 184.35 138.95H193.8C196.367 143.15 199.05 145.95 201.85 147.35C204.183 144.317 206.867 141.983 209.9 140.35V64.05C209.9 45.3833 202.433 31.7333 187.5 23.1C172.567 14.2333 153.9 9.79998 131.5 9.79998H20.9V39.55H41.9V140.7C44.2333 141.867 46.8 144.083 49.6 147.35C51.4667 146.183 54.15 143.383 57.65 138.95H66.75C69.7833 143.15 72.4667 145.95 74.8 147.35C78.3 143.15 82.2667 140.233 86.7 138.6V39.55H125.2C136.867 39.55 146.2 42.5833 153.2 48.65C160.2 54.7167 163.7 63.4667 163.7 74.9V138.25C168.6 140.117 172.8 143.15 176.3 147.35ZM166.15 173.25C166.15 197.283 152.5 209.3 125.2 209.3C98.1333 209.3 84.6 197.283 84.6 173.25C84.6 169.05 86.2333 164.733 89.5 160.3C93 155.633 98.6 153.3 106.3 153.3V144.9C102.1 144.9 98.8333 145.133 96.5 145.6C94.1667 145.833 91.25 147.233 87.75 149.8C84.25 152.133 80.9833 155.75 77.95 160.65C72.35 159.483 67.1 155.517 62.2 148.75C57.5333 154.817 52.4 158.783 46.8 160.65C43.7667 155.75 40.5 152.133 37 149.8C33.5 147.233 30.5833 145.833 28.25 145.6C25.9167 145.133 22.65 144.9 18.45 144.9V153.3C33.3833 153.3 40.85 162.983 40.85 182.35C40.85 189.817 40.3833 195.767 39.45 200.2C38.75 204.633 36.5333 208.717 32.8 212.45C29.3 216.183 24.05 218.05 17.05 218.05L11.1 217.35C16.7 229.483 25.2167 235.55 36.65 235.55C42.0167 235.55 46.6833 234.267 50.65 231.7C54.85 229.133 59.5167 225.05 64.65 219.45H67.45C73.75 225.05 80.75 229.017 88.45 231.35C96.3833 233.683 108.75 234.85 125.55 234.85C182.017 234.85 210.25 218.517 210.25 185.85C210.25 164.15 217.717 153.3 232.65 153.3V144.9C228.45 144.9 225.183 145.133 222.85 145.6C220.75 145.833 217.95 147.233 214.45 149.8C210.95 152.133 207.683 155.75 204.65 160.65C199.283 159.483 194.15 155.517 189.25 148.75C184.583 154.817 179.1 158.783 172.8 160.65C169.767 155.75 166.5 152.133 163 149.8C159.733 147.233 156.933 145.833 154.6 145.6C152.5 145.133 149.233 144.9 144.8 144.9V153.3C152.5 153.3 157.983 155.517 161.25 159.95C164.517 164.383 166.15 168.817 166.15 173.25ZM135.7 135.8C144.333 135.8 150.4 136.033 153.9 136.5V76.3L153.55 71.75C150.75 70.8167 147.133 70.35 142.7 70.35H114V135.8H115.4L132.9 156.8V182.35C119.133 182.817 112.25 187.367 112.25 196V197.75C115.983 198.683 120.417 199.15 125.55 199.15C142.583 199.15 152.617 193.55 155.65 182.35H153.2L135.7 161.35V135.8Z" fill="#3267A1"/>
<path d="M278.55 237H450.05L467.55 258V306.65H449.35L462.3 373.15C464.4 372.917 467.667 372.8 472.1 372.8L489.6 393.8L493.8 419C481.2 419 474.9 424.6 474.9 435.8C474.9 442.567 475.717 445.95 477.35 445.95C481.317 445.95 483.533 444.783 484 442.45L495.2 449.1L512.7 470.1C512.7 481.3 509.9 489.583 504.3 494.95C498.933 500.317 491.933 503 483.3 503C474.9 503 465.217 500.083 454.25 494.25C445.617 500.083 437.217 503 429.05 503C416.217 503 404.083 497.283 392.65 485.85C381.45 474.417 373.867 462.167 369.9 449.1L378.3 442.45C380.167 444.783 382.85 445.95 386.35 445.95C394.05 445.95 397.9 441.4 397.9 432.3L396.85 424.25C392.417 421.917 386.933 420.75 380.4 420.75C374.1 420.75 368.033 422.617 362.2 426.35C356.367 430.083 352.4 435.45 350.3 442.45L358.7 449.1L376.2 470.1C372.933 481.067 367.45 489.233 359.75 494.6C352.283 500.2 344.233 503 335.6 503C327.2 503 318.333 500.083 309 494.25C298.5 500.083 288.817 503 279.95 503C267.817 503 257.083 497.167 247.75 485.5C238.65 473.833 234.1 461.7 234.1 449.1L244.95 442.45C245.417 444.783 247.633 445.95 251.6 445.95C255.8 445.95 259.767 443.15 263.5 437.55C267.467 431.95 269.917 425.767 270.85 419L252.3 398L256.5 372.8C266.533 372.8 274.117 373.5 279.25 374.9L293.25 303.5L278.55 285.65V237ZM408.4 384.7C410.5 383.067 412.833 380.15 415.4 375.95H424.5C428.233 380.383 431.617 383.3 434.65 384.7C435.583 383.067 437.45 381.083 440.25 378.75L420.3 275.5H440.25V246.8H288.35V275.5H308.3L288 378.75C290.8 380.85 292.9 382.833 294.3 384.7C297.1 383.067 300.367 380.15 304.1 375.95H313.2C315.067 380.383 317.05 383.3 319.15 384.7C328.017 375.833 342.95 371.4 363.95 371.4C385.183 371.4 400 375.833 408.4 384.7ZM435.7 460.65C445.967 468.583 455.767 472.55 465.1 472.55C474.667 472.55 480.967 466.483 484 454.35C482.833 455.283 481.2 455.75 479.1 455.75C470.233 455.75 462.65 451.433 456.35 442.8C450.283 433.933 447.25 425.533 447.25 417.6C447.25 401.033 453.667 391.817 466.5 389.95L465.1 381.55C460.667 381.55 457.283 381.783 454.95 382.25C452.85 382.483 450.283 383.883 447.25 386.45C444.217 388.783 441.65 392.517 439.55 397.65C434.183 396.717 428.117 392.75 421.35 385.75C419.717 388.783 417.733 391.35 415.4 393.45C413.3 395.317 410.85 396.717 408.05 397.65C398.95 386.45 384.25 380.85 363.95 380.85C343.65 380.85 329.183 386.45 320.55 397.65C315.183 396.717 310.633 392.75 306.9 385.75C301.3 391.817 295.467 395.783 289.4 397.65C287.3 392.517 284.617 388.783 281.35 386.45C278.317 383.883 275.633 382.483 273.3 382.25C270.967 381.783 267.7 381.55 263.5 381.55L262.1 389.95C268.633 390.883 273.417 393.683 276.45 398.35C279.717 402.783 281.35 409.083 281.35 417.25C281.35 425.417 278.2 433.933 271.9 442.8C265.833 451.433 258.483 455.75 249.85 455.75L244.95 454.35C247.983 466.483 254.05 472.55 263.15 472.55C272.483 472.55 282.4 468.583 292.9 460.65H295C302.933 468.583 310.867 472.55 318.8 472.55C329.3 472.55 338.4 466.483 346.1 454.35C344.233 455.283 342.133 455.75 339.8 455.75C326.733 455.75 320.2 448.983 320.2 435.45C320.2 421.917 324.633 411.3 333.5 403.6C342.367 395.667 352.633 391.7 364.3 391.7C375.967 391.7 386.233 395.667 395.1 403.6C403.967 411.3 408.4 421.917 408.4 435.45C408.4 448.983 401.867 455.75 388.8 455.75L382.15 454.35C389.617 466.483 398.833 472.55 409.8 472.55C417.967 472.55 425.9 468.583 433.6 460.65H435.7ZM332.45 363L351.35 275.5H377.25L396.85 363H332.45ZM375.5 312.25L366.4 353.9H384.95L375.5 312.25Z" fill="#61A5ED"/>
</svg>
